<?xml version="1.0" encoding="UTF-8" standalone="no"?>
<!-- Created with Inkscape (http://www.inkscape.org/) -->

<svg
   xmlns:dc="http://purl.org/dc/elements/1.1/"
   xmlns:cc="http://creativecommons.org/ns#"
   xmlns:rdf="http://www.w3.org/1999/02/22-rdf-syntax-ns#"
   xmlns:svg="http://www.w3.org/2000/svg"
   xmlns="http://www.w3.org/2000/svg"
   xmlns:sodipodi="http://sodipodi.sourceforge.net/DTD/sodipodi-0.dtd"
   xmlns:inkscape="http://www.inkscape.org/namespaces/inkscape"
   width="12"
   height="12"
   id="svg4764"
   version="1.1"
   inkscape:version="0.48.4 r9939"
   sodipodi:docname="bus-12-green.svg">
  <defs
     id="defs4766" />
  <sodipodi:namedview
     id="base"
     pagecolor="#ffffff"
     bordercolor="#666666"
     borderopacity="1.0"
     inkscape:pageopacity="0.0"
     inkscape:pageshadow="2"
     inkscape:zoom="22.627417"
     inkscape:cx="2.1353591"
     inkscape:cy="7.195871"
     inkscape:document-units="px"
     inkscape:current-layer="layer1"
     showgrid="true"
     showguides="false"
     inkscape:guide-bbox="true"
     inkscape:window-width="957"
     inkscape:window-height="704"
     inkscape:window-x="156"
     inkscape:window-y="34"
     inkscape:window-maximized="0">
    <inkscape:grid
       type="xygrid"
       id="grid4772"
       empspacing="5"
       visible="true"
       enabled="true"
       snapvisiblegridlinesonly="true" />
    <sodipodi:guide
       orientation="0,1"
       position="2,12"
       id="guide4789" />
    <sodipodi:guide
       orientation="1,0"
       position="12,10"
       id="guide4791" />
    <sodipodi:guide
       orientation="0,1"
       position="10,0"
       id="guide4793" />
    <sodipodi:guide
       orientation="1,0"
       position="0,9"
       id="guide4795" />
    <sodipodi:guide
       orientation="0,1"
       position="5,11"
       id="guide4797" />
    <sodipodi:guide
       orientation="1,0"
       position="11,7"
       id="guide4799" />
    <sodipodi:guide
       orientation="0,1"
       position="9,2"
       id="guide4801" />
    <sodipodi:guide
       orientation="1,0"
       position="2,5"
       id="guide4803" />
  </sodipodi:namedview>
  <metadata
     id="metadata4769">
    <rdf:RDF>
      <cc:Work
         rdf:about="">
        <dc:format>image/svg+xml</dc:format>
        <dc:type
           rdf:resource="http://purl.org/dc/dcmitype/StillImage" />
        <dc:title />
      </cc:Work>
    </rdf:RDF>
  </metadata>
  <g
     inkscape:label="Layer 1"
     inkscape:groupmode="layer"
     id="layer1"
     transform="translate(0,-1040.3622)">
    <g
       style="display:inline"
       id="bus-12"
       transform="translate(-126,-106)"
       inkscape:label="bus-12"
       inkscape:export-xdpi="89.996864"
       inkscape:export-ydpi="89.996864">
      <g
         id="g21794">
        <path
           inkscape:connector-curvature="0"
           id="path5498"
           d="m 131,1147.3622 0,1 -2,0 c 0,0 0,4.8333 0,7 l 1,0 0,1 1,0 0,-1 3,0 0,1 1,0 0,-1 1,0 c 0,-2.1667 0,-7 0,-7 l -2,0 0,-1 z m -1,2 5,0 0,3 -5,0 z m 0.5,4 c 0.277,0 0.5,0.223 0.5,0.5 0,0.277 -0.223,0.5 -0.5,0.5 -0.277,0 -0.5,-0.223 -0.5,-0.5 0,-0.277 0.223,-0.5 0.5,-0.5 z m 4,0 c 0.277,0 0.5,0.223 0.5,0.5 0,0.277 -0.223,0.5 -0.5,0.5 -0.277,0 -0.5,-0.223 -0.5,-0.5 0,-0.277 0.223,-0.5 0.5,-0.5 z"
           style="color:#000000;fill:#ffffff;fill-opacity:1;fill-rule:nonzero;stroke:#ffffff;stroke-width:2;marker:none;visibility:visible;display:inline;overflow:visible;enable-background:accumulate;opacity:0.29999999999999999;stroke-linecap:round;stroke-linejoin:round;stroke-miterlimit:4;stroke-opacity:1;stroke-dasharray:none;stroke-dashoffset:0"
           sodipodi:nodetypes="ccccccccccccccccccccccssssssssss" />
        <path
           sodipodi:nodetypes="ccccccccccccccccccccccssssssssss"
           style="color:#000000;fill:#444444;fill-opacity:1;fill-rule:nonzero;stroke:none;stroke-width:2;marker:none;visibility:visible;display:inline;overflow:visible;enable-background:accumulate"
           d="m 131,1147.3622 0,1 -2,0 c 0,0 0,4.8333 0,7 l 1,0 0,1 1,0 0,-1 3,0 0,1 1,0 0,-1 1,0 c 0,-2.1667 0,-7 0,-7 l -2,0 0,-1 z m -1,2 5,0 0,3 -5,0 z m 0.5,4 c 0.277,0 0.5,0.223 0.5,0.5 0,0.277 -0.223,0.5 -0.5,0.5 -0.277,0 -0.5,-0.223 -0.5,-0.5 0,-0.277 0.223,-0.5 0.5,-0.5 z m 4,0 c 0.277,0 0.5,0.223 0.5,0.5 0,0.277 -0.223,0.5 -0.5,0.5 -0.277,0 -0.5,-0.223 -0.5,-0.5 0,-0.277 0.223,-0.5 0.5,-0.5 z"
           id="path8522-6-8-5"
           inkscape:connector-curvature="0" />
      </g>
      <rect
         y="1146.3622"
         x="126"
         height="12.000007"
         width="11.999998"
         id="rect22174"
         style="opacity:0.5;color:#000000;fill:none;stroke:none;stroke-width:2;marker:none;visibility:visible;display:inline;overflow:visible;enable-background:accumulate" />
    </g>
    <path
       style="fill:#5a9234;fill-opacity:1"
       d="m 4.0091921,9.484292 0,-0.508233 -0.4861359,0 -0.486136,0 0,-3.4692426 0,-3.4692427 0.994369,0 0.9943689,0 0,-0.508233 0,-0.508233 1.4805048,0 1.4805048,0 0,0.508233 0,0.508233 0.9943689,0 0.9943689,0 0,3.4692427 0,3.4692426 -0.508233,0 -0.508233,0 0,0.508233 0,0.508233 -0.4640388,0 -0.4640388,0 0,-0.508233 0,-0.508233 -1.524699,0 -1.524699,0 0,0.508233 0,0.508233 -0.4861359,0 -0.4861359,0 0,-0.508233 z M 4.8407864,7.8787663 C 5.1914166,7.5512287 4.9665182,6.9873212 4.485259,6.9873212 c -0.4545145,0 -0.6641583,0.5564104 -0.3340294,0.8865395 0.1078118,0.1078117 0.166164,0.1299265 0.3428242,0.1299265 0.1726884,0 0.2381744,-0.023612 0.3467326,-0.1250209 z M 8.8528735,7.853527 C 8.9800542,7.7263463 9.0031337,7.6721484 9.0031337,7.500671 c 0,-0.5287519 -0.7123491,-0.7080888 -0.9542808,-0.2402444 -0.1792918,0.3467117 0.061445,0.7433606 0.4511646,0.7433606 0.1714774,0 0.2256754,-0.023079 0.352856,-0.1502602 z m 0.1502602,-3.3631766 0,-1.524699 -2.5190679,0 -2.5190679,0 0,1.524699 0,1.524699 2.5190679,0 2.5190679,0 0,-1.524699 z"
       id="path2996"
       inkscape:connector-curvature="0"
       transform="translate(0,1040.3622)" />
    <path
       style="fill:#007b00;fill-opacity:1"
       d="m 4.0091921,9.484292 0,-0.508233 -0.4861359,0 -0.486136,0 0,-3.4692426 0,-3.4692427 0.994369,0 0.9943689,0 0,-0.508233 0,-0.508233 1.4805048,0 1.4805048,0 0,0.508233 0,0.508233 0.9943689,0 0.9943689,0 0,3.4692427 0,3.4692426 -0.508233,0 -0.508233,0 0,0.508233 0,0.508233 -0.4640388,0 -0.4640388,0 0,-0.508233 0,-0.508233 -1.524699,0 -1.524699,0 0,0.508233 0,0.508233 -0.4861359,0 -0.4861359,0 0,-0.508233 z M 4.8439878,7.8906377 C 5.0795514,7.6924238 5.0822383,7.3464616 4.8500176,7.1142411 4.7444962,7.0087196 4.6862747,6.9873212 4.5046875,6.9873212 c -0.2689951,0 -0.4282273,0.1116049 -0.4997293,0.3502574 -0.063646,0.2124325 0.00527,0.4490658 0.1680727,0.577129 0.1702443,0.1339141 0.4971402,0.1221872 0.6709569,-0.02407 l 0,0 z M 8.8573986,7.8625351 C 8.983234,7.7405711 9.0031337,7.6916906 9.0031337,7.5045623 9.0031337,7.3170212 8.9829025,7.2676104 8.8528735,7.1375814 8.7246163,7.0093241 8.6721971,6.9873212 8.4949007,6.9873212 c -0.1772964,0 -0.2297156,0.022003 -0.3579728,0.1502602 -0.1282572,0.1282572 -0.1502602,0.1806764 -0.1502602,0.3579728 0,0.1772964 0.022003,0.2297156 0.1502602,0.3579728 0.1291659,0.1291659 0.180055,0.1502602 0.3624979,0.1502602 0.1788538,0 0.2351611,-0.022218 0.3579728,-0.1412521 z m 0.1457351,-3.3721847 0,-1.524699 -2.5190679,0 -2.5190679,0 0,1.524699 0,1.524699 2.5190679,0 2.5190679,0 0,-1.524699 z"
       id="path2997"
       inkscape:connector-curvature="0"
       transform="translate(0,1040.3622)" />
  </g>
</svg>
